<svg xmlns="http://www.w3.org/2000/svg" version="1.1" xmlns:xlink="http://www.w3.org/1999/xlink" width="655" height="655"><svg id="SvgjsSvg1009" xmlns="http://www.w3.org/2000/svg" version="1.1" viewBox="0 0 655 655">
  <!-- Generator: Adobe Illustrator 29.8.1, SVG Export Plug-In . SVG Version: 2.1.1 Build 2)  -->
  <defs>
    <style>
      .st0 {
        fill: #3d1971;
      }

      .st1 {
        fill: #ff9d4b;
      }

      .st2 {
        fill: #ec4b55;
      }

      .st3 {
        fill: #fd8940;
      }

      .st4 {
        fill: #4e2490;
      }
    </style>
  </defs>
  <path class="st3" d="M59.1,307.9c85-35.8,175.3-54,268.4-54s183.4,18.2,268.4,54c11.2,4.7,22.3,9.8,33.2,15.1-.6-40.4-9.1-78.8-24.1-113.9-3.3-1.4-6.6-2.9-9.9-4.3-84.8-35.9-174.8-54-267.6-54s-182.9,18.2-267.6,54c-3.3,1.4-6.6,2.8-9.9,4.3-15,35-23.5,73.5-24.1,113.9,10.9-5.3,22-10.3,33.2-15.1Z"></path>
  <path class="st2" d="M327.5,281.9c-89.3,0-176,17.4-257.5,51.8-14.6,6.2-29,12.8-43,20,2.9,33.7,11.3,65.8,24.4,95.4,11.2-5.5,22.5-10.7,34.1-15.5,76.6-32.2,158.1-48.5,242-48.5s165.4,16.3,242,48.5c11.5,4.9,22.9,10,34.1,15.5,13-29.6,21.5-61.7,24.4-95.4-14.1-7.1-28.4-13.8-43-20-81.5-34.4-168.2-51.8-257.5-51.8Z"></path>
  <path class="st1" d="M327.5,122.8c89,0,175.6,16.1,257.7,47.8C532.2,83.8,436.6,25.9,327.5,25.9S122.8,83.8,69.8,170.6c82.1-31.7,168.6-47.8,257.7-47.8Z"></path>
  <path class="st0" d="M499.8,575.1c-55-20.6-112.9-31-172.3-31s-117.3,10.4-172.3,31c48.9,34.1,108.3,54.1,172.3,54.1s123.5-20,172.3-54.1Z"></path>
  <path class="st4" d="M327.5,413c-80.2,0-158,15.6-231.2,46.3-11,4.6-21.8,9.6-32.5,14.8,17.1,30.7,39.4,58,65.6,80.9,62.8-25.9,129.4-39,198-39s135.2,13.1,198,39c26.3-22.9,48.6-50.3,65.6-80.9-10.6-5.2-21.5-10.2-32.5-14.8-73.2-30.8-151-46.3-231.2-46.3Z"></path>
</svg><style>@media (prefers-color-scheme: light) { :root { filter: none; } }
@media (prefers-color-scheme: dark) { :root { filter: none; } }
</style></svg>