<svg xmlns="http://www.w3.org/2000/svg" viewBox="0 0 100 100" width="100" height="100">
  <path fill="#c9dcf4" d="M50,86.067c-9.125,0-18.377-0.187-27.502-0.556C14.556,85.166,7.717,78.469,7.24,70.581 c-0.756-13.33-0.756-26.832-0.001-40.147c0.479-7.9,7.317-14.598,15.246-14.944c9.138-0.37,18.391-0.557,27.515-0.557 s18.377,0.187,27.502,0.556c7.942,0.348,14.781,7.045,15.258,14.931c0.756,13.33,0.756,26.832,0.001,40.147 c-0.478,7.902-7.317,14.6-15.247,14.944C68.377,85.881,59.125,86.067,50,86.067z"/>
  <path fill="#abd451" d="M56,77c0,0-34.243,4.447-34.687,4.371c-5.288-0.899-9.753-5.621-10.08-11.031 c-0.587-10.348-0.715-20.697-0.383-31.045C10.942,36.417,16,38,16,38s-4.668-8.359-4.566-8.856 c1.07-5.195,5.88-9.425,11.226-9.659c18.227-0.737,36.453-0.737,54.68,0c5.857,0.256,11.072,5.311,11.427,11.175 c0.076,1.347,0.145,2.693,0.206,4.04C89.045,36.302,85,43,85,43s4.245-0.356,4.273,1.213c0.149,8.263,0.004,16.525-0.433,24.788 C88.817,69.447,56,77,56,77z"/>
  <path fill="#b55e67" d="M85.777,77.33L67.645,59.125L34.642,81.887c14.233,0.323,28.465,0.203,42.698-0.372 C80.592,81.373,83.643,79.748,85.777,77.33z"/>
  <path fill="#fb7369" d="M69.375,20.065c0-10.733-8.729-19.428-19.475-19.372c-10.18,0.053-18.81,8.374-19.252,18.544 c-0.464,10.69,6.187,20.615,14.779,26.456c0.434,0.295,0.874,0.58,1.321,0.855c2.103,1.296,4.787,1.188,6.856-0.162 C61.948,40.944,69.375,30.348,69.375,20.065z"/>
  <circle cx="50.004" cy="18.433" r="7.279" fill="#fff"/>
  <path fill="#4a254b" d="M50.071,39.501c1.944,0,3.547-1.465,3.763-3.351c0.026-0.23-0.143-0.437-0.375-0.437c-1.31,0-5.467,0-6.777,0 c-0.232,0-0.401,0.206-0.375,0.437C46.525,38.036,48.127,39.501,50.071,39.501z"/>
  <path fill="#4a254b" d="M58.642,33.542c-0.552,0-1-0.447-1-1c0-0.639-0.52-1.158-1.158-1.158s-1.158,0.52-1.158,1.158 c0,0.553-0.448,1-1,1s-1-0.447-1-1c0-1.741,1.417-3.158,3.158-3.158s3.158,1.417,3.158,3.158 C59.642,33.095,59.194,33.542,58.642,33.542z"/>
  <path fill="#4a254b" d="M45.674,33.542c-0.552,0-1-0.447-1-1c0-0.639-0.52-1.158-1.158-1.158s-1.158,0.52-1.158,1.158 c0,0.553-0.448,1-1,1s-1-0.447-1-1c0-1.741,1.417-3.158,3.158-3.158s3.158,1.417,3.158,3.158 C46.674,33.095,46.227,33.542,45.674,33.542z"/>
  <path fill="#fec933" d="M74.341,54.507l14.926-10.295c-0.057-3.171-0.156-6.342-0.299-9.512L48.985,62.277l-37.538-33.13 c-0.102,0.498-0.183,1.001-0.214,1.513c-0.163,2.879-0.284,5.757-0.377,8.636l31.342,27.662L21.314,81.362 c0.444,0.075,0.892,0.134,1.346,0.153c3.995,0.161,7.989,0.281,11.984,0.372l33.001-22.761l18.167,18.167 c1.69-1.931,2.798-4.362,2.955-6.952c0.025-0.447,0.043-0.893,0.067-1.34L74.341,54.507z"/>
</svg>
